<svg width="25" height="19" viewBox="0 0 25 19" fill="none" xmlns="http://www.w3.org/2000/svg">
<path d="M9.75415 1.62244C9.86619 2.27355 9.89532 2.92912 9.84378 3.58915C9.79225 4.24918 9.66004 4.89137 9.44717 5.51795C9.13122 6.65963 8.65617 7.73218 8.02203 8.7356C7.45735 9.66544 6.74926 10.4726 5.89777 11.155C5.38911 11.5942 4.81995 11.9309 4.18805 12.1651C3.55615 12.3992 2.90408 12.5152 2.2296 12.5129C2.04362 12.5129 1.86211 12.4817 1.68285 12.426C1.50583 12.3702 1.34001 12.2877 1.18764 12.1807C1.03526 12.0737 0.903057 11.9466 0.788778 11.7994C0.674498 11.6522 0.587107 11.4917 0.522124 11.3177C0.42353 10.9677 0.405603 10.6109 0.470586 10.2541C0.535569 9.89512 0.674497 9.56733 0.889613 9.27299C1.42964 8.47248 2.09067 7.79015 2.87719 7.22824C4.33594 6.32069 5.73867 5.33511 7.08314 4.26702C8.56654 3.03615 9.62419 1.58453 9.75191 1.6269" fill="#EF622A"/>
<path d="M13.9611 0.866535C14.0174 1.3159 14.029 1.76704 13.9951 2.21907C13.9951 3.03698 14.0156 4.15951 14.1039 5.37616C14.1923 6.59282 14.369 7.90806 14.5796 9.13537C14.7902 10.3627 15.0347 11.5021 15.1945 12.4248C15.5345 14.2569 15.7344 15.5481 15.7139 16.4611C15.6934 17.374 15.4417 17.8811 14.9901 18.0605C14.5385 18.2399 13.9272 17.9086 13.2918 17.0463C12.884 16.4398 12.5475 15.7959 12.2843 15.1148C12.021 14.4336 11.8354 13.732 11.7292 13.01C11.5507 11.8404 11.498 10.6646 11.573 9.48438C11.6578 8.0981 11.8728 6.73225 12.2182 5.38682C12.494 4.27229 12.8572 3.18707 13.3088 2.13115C13.4721 1.68179 13.6889 1.26084 13.9611 0.866535Z" fill="#EF622A"/>
<path d="M16.661 1.5248C16.7694 1.49122 17.6485 2.66121 18.8384 3.8047C20.0284 4.94818 21.5434 6.05101 22.3674 6.84633C23.0548 7.42779 23.5929 8.12236 23.9836 8.93181C24.0458 9.0679 24.0902 9.21106 24.1186 9.35775C24.147 9.50444 24.1577 9.6529 24.1506 9.80312C24.1435 9.95335 24.1186 10.1 24.0778 10.2432C24.0369 10.3864 23.9783 10.5242 23.9037 10.655C23.8131 10.7928 23.7048 10.913 23.5787 11.0191C23.4526 11.1251 23.3141 11.2082 23.1613 11.2736C23.0104 11.3372 22.8523 11.3778 22.6889 11.3955C22.5255 11.4132 22.3621 11.4061 22.2005 11.3761C21.6624 11.293 21.1509 11.1251 20.6695 10.8724C20.1882 10.6179 19.7602 10.2927 19.389 9.89679C18.7869 9.27645 18.2932 8.57834 17.9078 7.80424C17.4443 6.90465 17.0997 5.96265 16.8741 4.97823C16.5491 3.84358 16.4799 2.69303 16.6646 1.52657" fill="#EF622A"/>
</svg>
